<svg 
    xmlns="http://www.w3.org/2000/svg" 
    version="1.1" xmlns:xlink="http://www.w3.org/1999/xlink" 
    xmlns:svgjs="http://svgjs.dev/svgjs" 
    width="2000" height="2000" viewBox="0 0 2000 1500"
>
    <rect width="2000" height="2000" fill="#ffffff"></rect>
    <g transform="matrix(0.75,0,0,0.75,250.06805807622493,262.8947368421052)">
    <svg 
        viewBox="0 0 380 247" 
        data-background-color="#ffffff" 
        preserveAspectRatio="xMidYMid meet" 
        height="2000" width="2000" 
        xmlns="http://www.w3.org/2000/svg" 
        xmlns:xlink="http://www.w3.org/1999/xlink"
    >
        <g id="tight-bounds" transform="matrix(1,0,0,1,-0.017241379310320326,-0.09999999999999432)">
    <svg viewBox="0 0 380.03448275862064 247.2" height="247.2" width="380.03448275862064"><g><svg viewBox="0 0 380.03448275862064 247.2" height="247.2" width="380.03448275862064"><g><svg viewBox="0 0 380.03448275862064 247.2" height="247.2" width="380.03448275862064"><g id="textblocktransform"><svg viewBox="0 0 380.03448275862064 247.2" height="247.2" width="380.03448275862064" id="textblock"><g><svg viewBox="0 0 380.03448275862064 247.2" height="247.2" width="380.03448275862064"><g transform="matrix(1,0,0,1,0,0)"><svg width="380.03448275862064" viewBox="1.15 -33.95 53.49 34.800000000000004" height="247.2" data-palette-color="#2c3ad1"><path d="M13.65 0L1.15 0 1.15-1.05 2.15-1.35Q3.15-1.7 3.48-2.27 3.8-2.85 3.8-3.9L3.8-3.9 3.8-29.15Q3.8-30.2 3.48-30.78 3.15-31.35 2.15-31.7L2.15-31.7 1.15-32 1.15-33.05 13.65-33.05 13.65-32 12.65-31.7Q11.7-31.35 11.35-30.78 11-30.2 11-29.15L11-29.15 11-3.9Q11-2.85 11.35-2.27 11.7-1.7 12.65-1.35L12.65-1.35 13.65-1.05 13.65 0ZM44.05 0.85L44.05 0.85Q39.2 0.85 35.3-1.15 31.39-3.15 29.12-7.05 26.84-10.95 26.84-16.55L26.84-16.55Q26.84-20.75 28.22-24 29.59-27.25 32.02-29.48 34.45-31.7 37.59-32.83 40.74-33.95 44.3-33.95L44.3-33.95Q47.05-33.95 49.45-33.33 51.84-32.7 54.05-31.5L54.05-31.5 54.25-24.95 52.89-24.95 50.8-28.9Q50.3-29.9 49.72-30.7 49.14-31.5 48.25-31.85L48.25-31.85Q47-32.45 45.3-32.45L45.3-32.45Q42.34-32.45 39.92-30.95 37.49-29.45 36.05-25.98 34.59-22.5 34.59-16.5L34.59-16.5Q34.59-10.55 35.97-7.05 37.34-3.55 39.7-2.08 42.05-0.6 45-0.6L45-0.6Q46.34-0.6 47.2-0.8 48.05-1 48.89-1.35L48.89-1.35Q49.89-1.75 50.45-2.53 51-3.3 51.39-4.3L51.39-4.3 53.3-8.85 54.64-8.85 54.45-1.65Q52.3-0.45 49.7 0.2 47.09 0.85 44.05 0.85Z" opacity="1" transform="matrix(1,0,0,1,0,0)" fill="#2c3ad1" class="wordmark-text-0" data-fill-palette-color="primary" id="text-0"></path></svg></g></svg></g></svg></g></svg></g><g></g></svg></g><defs></defs></svg><rect width="380.03448275862064" height="247.2" fill="none" stroke="none" visibility="hidden"></rect></g></svg></g></svg>